<?xml version="1.0" encoding="UTF-8"?>
<svg id="Layer_2" data-name="Layer 2" xmlns="http://www.w3.org/2000/svg" viewBox="0 0 180 180">
  <defs>
    <style>
      .cls-1 {
        fill: #fff;
      }

      .cls-2 {
        fill: #001736;
      }
    </style>
  </defs>
  <g id="Layer_1-2" data-name="Layer 1">
    <rect class="cls-2" width="180" height="180" rx="30.97" ry="30.97"/>
    <path class="cls-1" d="m153.37,59.79c-2.36-1.56-5.54-.91-7.1,1.45-.6.9-.87,1.92-.84,2.93l-56,21.09,14.84-16.75c1.96.79,4.28.33,5.76-1.34,1.88-2.12,1.68-5.35-.44-7.23-.91-.81-2.03-1.23-3.17-1.28l-7.64-25.25c1.7-1.25,2.52-3.47,1.88-5.61-.82-2.71-3.68-4.24-6.39-3.42-2.71.82-4.24,3.68-3.42,6.39.28.92.8,1.7,1.46,2.3l-46.69,111.09c-2.11-.12-4.16,1.07-5.02,3.12-1.1,2.61.13,5.61,2.74,6.71,2.61,1.1,5.61-.13,6.71-2.74.53-1.26.51-2.62.06-3.8l58.03-49.11-9.79,20.32c-2.1-.23-4.21.85-5.17,2.86-1.23,2.55-.16,5.61,2.39,6.84,1.64.79,3.48.62,4.92-.27l26.08,20.92c-.7,1.99-.12,4.29,1.62,5.69,2.21,1.77,5.43,1.42,7.2-.79,1.77-2.21,1.42-5.43-.79-7.2-.8-.64-1.73-1-2.67-1.1l-8.85-36.9,26.21-39.7c2.05.51,4.28-.28,5.51-2.14,1.56-2.36.91-5.54-1.45-7.1Zm-24.77,86.49l-25.96-20.83c.66-1.88.16-3.94-1.2-5.3l11.16-23.18c1.35.15,2.75-.23,3.87-1.18,2.16-1.83,2.43-5.06.6-7.22-1.83-2.16-5.06-2.43-7.22-.6-1.7,1.44-2.22,3.75-1.48,5.73l-58.72,49.68,45.81-109s.04,0,.07,0l7.64,25.25c-.29.21-.56.45-.8.73-1.48,1.67-1.67,4.03-.64,5.88l-16.21,18.28c-1.15-.47-2.48-.53-3.73-.05-2.65,1-3.98,3.95-2.99,6.6,1,2.65,3.95,3.98,6.6,2.99,2.09-.79,3.35-2.79,3.31-4.9l57.52-21.66-26.79,40.58,9.16,38.2Zm-88.47-25.12c0-1.44,1.16-2.6,2.6-2.6s2.6,1.16,2.6,2.6-1.17,2.6-2.6,2.6-2.6-1.16-2.6-2.6Zm20.76-36.18c.88.66,1.05,1.92.39,2.79-.67.88-1.92,1.06-2.8.4-.88-.67-1.05-1.92-.38-2.8.66-.88,1.91-1.05,2.79-.39Zm-11.03-28.91c1.05-2.03,3.55-2.83,5.58-1.78,2.03,1.05,2.83,3.55,1.78,5.58-1.05,2.03-3.54,2.82-5.58,1.78-2.04-1.05-2.84-3.54-1.79-5.58Zm40.17,88.55c0,2.98-2.41,5.4-5.4,5.4s-5.39-2.42-5.39-5.4,2.41-5.4,5.39-5.4,5.4,2.42,5.4,5.4Zm-57.22-60.05c-1.43,1.25-3.49,1.66-5.36.87-2.61-1.1-3.83-4.1-2.74-6.71,1.1-2.61,4.1-3.83,6.71-2.74,1.19.5,2.08,1.4,2.61,2.47l23.64-4.53c.06-.58.21-1.17.48-1.73,1.23-2.55,4.29-3.62,6.84-2.39,2.55,1.23,3.62,4.29,2.39,6.84-1.23,2.55-4.29,3.62-6.84,2.39-.87-.42-1.56-1.05-2.05-1.8l-23.71,4.54,16.32,11.4s.07-.07.11-.1c2.16-1.83,5.39-1.56,7.22.6,1.83,2.16,1.56,5.39-.6,7.22-2.16,1.83-5.39,1.56-7.22-.6-1-1.18-1.37-2.69-1.14-4.11l-16.65-11.63Z"/>
  </g>
</svg>